Coordinates
version=1
nRows=11
nColumns=42
inDegrees=yes

Units are S.I. units (second, meters, Newtons, ...)
If the header above contains a line with 'inDegrees', this indicates whether rotational values are in degrees (yes) or radians (no).

endheader
time	pelvis_tilt	pelvis_list	pelvis_rotation	pelvis_tx	pelvis_ty	pelvis_tz	hip_flexion_r	hip_adduction_r	hip_rotation_r	knee_angle_r	knee_adduction_r	knee_angle_r_beta	ankle_angle_r	subtalar_angle_r	mtp_angle_r	hip_flexion_l	hip_adduction_l	hip_rotation_l	knee_angle_l	knee_adduction_l	knee_angle_l_beta	ankle_angle_l	subtalar_angle_l	mtp_angle_l	lumbar_extension	lumbar_bending	lumbar_rotation	arm_flex_r	arm_add_r	arm_rot_r	elbow_flex_r	pro_sup_r	wrist_flex_r	wrist_dev_r	arm_flex_l	arm_add_l	arm_rot_l	elbow_flex_l	pro_sup_l	wrist_flex_l	wrist_dev_l
      2.94000000	     -1.14051290	     -2.23806957	     -2.40874949	      1.12956328	      0.88084985	     -0.14296596	     -9.89933083	     -1.88480256	     -3.55075606	      6.44431024	     12.32026658	      0.11247443	     16.96746308	      4.33410252	     -7.50029831	     23.70940150	    -12.90054879	     -6.04693799	     16.30786331	     16.27458788	      0.28462591	      3.75383106	     -4.45500604	     -7.50029831	    -13.87426853	      5.34892792	      3.16859433	     -7.79317652	    -13.89815477	     -4.32770827	     18.07391732	     90.00000001	      0.00000000	      0.00000000	    -14.00087058	     -7.88810681	      9.36115530	     22.70948101	     90.00000001	      0.00000000	      0.00000000
      2.95000000	     -0.95609097	     -2.22659108	     -2.65113917	      1.13998619	      0.87922876	     -0.14329731	    -10.78382935	     -2.05010438	     -3.61906113	      6.60123249	     12.42662524	      0.11521324	     17.32654071	      4.39199463	     -7.50028572	     23.34163273	    -12.66683989	     -7.12300220	     13.48593265	     15.72676821	      0.23537393	      3.73371284	     -3.50257820	     -7.50028572	    -14.09824979	      5.15562080	      3.34633433	     -7.82875125	    -13.93827589	     -4.26310237	     18.02958733	     90.00000001	      0.00000000	      0.00000000	    -14.09723435	     -7.78176671	      9.39293470	     22.80958601	     90.00000001	      0.00000000	      0.00000000
      2.96000000	     -1.25174645	     -2.54051270	     -2.81488764	      1.15014047	      0.87692924	     -0.14346558	    -11.08492642	     -1.70381053	     -3.62493416	      6.85784127	     12.31345746	      0.11969191	     17.66037761	      4.40386773	     -7.50028070	     23.79770720	    -12.87896422	     -8.01681766	     11.33293818	     15.36399992	      0.19779709	      3.69753213	     -2.47584183	     -7.50028070	    -13.81072812	      5.32960847	      3.49119956	     -7.89258393	    -13.99132440	     -4.21545039	     17.99493426	     90.00000001	      0.00000000	      0.00000000	    -14.25040430	     -7.66617007	      9.42183998	     22.94811798	     90.00000001	      0.00000000	      0.00000000
      2.97000000	     -1.02281975	     -2.50905105	     -3.08998771	      1.16083205	      0.87533034	     -0.14391158	    -12.01334149	     -1.96234475	     -3.68681104	      7.06633786	     12.47255807	      0.12333086	     17.96620470	      4.56967841	     -7.50027000	     23.36397234	    -12.64034480	     -9.17383247	      8.99602558	     14.90778789	      0.15701027	      3.95036078	     -1.55553080	     -7.50027000	    -14.08240287	      5.08945056	      3.67797104	     -7.91994135	    -14.02709313	     -4.17148330	     17.99227793	     90.00000001	      0.00000000	      0.00000000	    -14.34438155	     -7.58252243	      9.49232004	     23.08026067	     90.00000001	      0.00000000	      0.00000000
      2.98000000	     -1.04818269	     -2.63812758	     -3.32872514	      1.17154864	      0.87339564	     -0.14423512	    -12.64238253	     -1.97252334	     -3.72047934	      7.34107409	     12.50911683	      0.12812591	     18.24625960	      4.76469179	     -7.50025993	     23.40587255	    -12.62662160	    -10.18178155	      7.30138967	     14.56677010	      0.12743329	      4.23259831	     -0.80320871	     -7.50025993	    -14.06070522	      5.01894748	      3.88498717	     -8.01265062	    -14.02616466	     -4.13434255	     17.97905474	     90.00000001	      0.00000000	      0.00000000	    -14.48585034	     -7.50968898	      9.55567094	     23.24331093	     90.00000001	      0.00000000	      0.00000000
      2.99000000	     -1.24035084	     -2.93586861	     -3.26987598	      1.18212219	      0.87117260	     -0.14493974	    -13.14700587	     -1.75221660	     -3.84627003	      7.54319044	     12.57357171	      0.13165351	     18.31472789	      4.77871493	     -7.50025830	     24.10885192	    -12.74621001	    -10.99178449	      6.70188965	     14.29283678	      0.11697004	      4.42815028	     -0.76400645	     -7.50025830	    -13.86670222	      5.20355247	      3.82324806	     -8.11538295	    -14.05714416	     -4.13545984	     18.02207723	     90.00000001	      0.00000000	      0.00000000	    -14.58706391	     -7.42852491	      9.56909393	     23.38177145	     90.00000001	      0.00000000	      0.00000000
      3.00000000	     -1.44097184	     -3.16142944	     -3.35796049	      1.19303389	      0.86907528	     -0.14554774	    -13.62984976	     -1.62165907	     -3.83415338	      7.75615268	     12.54117706	      0.13537040	     18.40042078	      4.82430934	     -7.50025684	     24.59441605	    -12.82557198	    -11.66873925	      6.06596215	     14.10283807	      0.10587101	      4.70248135	     -0.66093424	     -7.50025684	    -13.64145908	      5.27910903	      3.86119095	     -8.24206691	    -14.06198078	     -4.13019912	     18.01493956	     90.00000001	      0.00000000	      0.00000000	    -14.75244744	     -7.35979492	      9.58461335	     23.52558337	     90.00000001	      0.00000000	      0.00000000
      3.01000000	     -1.19824867	     -2.82487996	     -4.11054097	      1.20457134	      0.86780432	     -0.14576267	    -14.44114240	     -2.41611633	     -3.23238768	      8.17026885	     12.66731960	      0.14259809	     18.75032976	      5.32203104	     -7.50024846	     23.83117595	    -12.45802779	    -12.62800657	      4.72309109	     13.90782915	      0.08243349	      5.24200962	      0.18290767	     -7.50024846	    -13.87092771	      4.56951736	      4.49461949	     -8.32320292	    -14.02976346	     -4.10613008	     17.95809679	     90.00000001	      0.00000000	      0.00000000	    -14.91654088	     -7.37589882	      9.76541525	     23.90405152	     90.00000001	      0.00000000	      0.00000000
      3.02000000	     -1.31808813	     -2.94439981	     -4.18111189	      1.21577409	      0.86600242	     -0.14652142	    -14.95573988	     -2.46126681	     -3.07922090	      8.51182322	     12.64945491	      0.14855934	     18.70312495	      5.38093055	     -7.50024726	     24.25980677	    -12.45117402	    -12.67923477	      4.85130099	     13.83562267	      0.08467118	      5.27495311	      0.20336308	     -7.50024726	    -13.71248767	      4.50603127	      4.52402045	     -8.45966692	    -13.99343492	     -4.10477966	     18.01746346	     90.00000001	      0.00000000	      0.00000000	    -15.00845590	     -7.33247310	      9.76261554	     24.00284226	     90.00000001	      0.00000000	      0.00000000
      3.03000000	     -1.43766995	     -3.00580709	     -4.32734629	      1.22733181	      0.86435572	     -0.14731830	    -15.45713078	     -2.60069744	     -2.83420793	      8.87977897	     12.60003306	      0.15498138	     18.63918850	      5.45829095	     -7.50024607	     24.55145343	    -12.39979142	    -12.58572563	      5.10143547	     13.78824756	      0.08903685	      5.28546214	      0.21155549	     -7.50024607	    -13.51834394	      4.37609889	      4.59442295	     -8.62475205	    -13.96354557	     -4.10600705	     18.05302530	     90.00000001	      0.00000000	      0.00000000	    -15.15121204	     -7.29286362	      9.76111752	     24.10864414	     90.00000001	      0.00000000	      0.00000000
      3.04000000	     -1.43600630	     -2.59213034	     -4.78821652	      1.23876172	      0.86306873	     -0.14829965	    -15.91109890	     -3.57962023	     -2.11652668	      9.40850792	     12.98497889	      0.16420944	     18.50892813	      5.72058549	     -7.50024202	     24.76524397	    -11.88246555	    -12.86870100	      6.01218562	     13.54172992	      0.10493243	      5.21247019	     -0.57456583	     -7.50024202	    -13.49302154	      3.67052448	      4.91056532	     -8.66959872	    -13.90512739	     -4.12105478	     17.94376185	     90.00000001	      0.00000000	      0.00000000	    -15.33436737	     -7.36873855	      9.87503999	     24.68048581	     90.00000001	      0.00000000	      0.00000000
